<?xml version="1.0" encoding="UTF-8" standalone="no"?>
<!-- Created with Inkscape (http://www.inkscape.org/) -->

<svg
   xmlns:dc="http://purl.org/dc/elements/1.1/"
   xmlns:cc="http://creativecommons.org/ns#"
   xmlns:rdf="http://www.w3.org/1999/02/22-rdf-syntax-ns#"
   xmlns:svg="http://www.w3.org/2000/svg"
   xmlns="http://www.w3.org/2000/svg"
   xmlns:xlink="http://www.w3.org/1999/xlink"
   xmlns:sodipodi="http://sodipodi.sourceforge.net/DTD/sodipodi-0.dtd"
   xmlns:inkscape="http://www.inkscape.org/namespaces/inkscape"
   width="210mm"
   height="297mm"
   viewBox="0 0 210 297"
   version="1.1"
   id="svg8"
   inkscape:version="0.92.0 r15299"
   sodipodi:docname="Nature Background Raw.svg">
  <defs
     id="defs2">
    <linearGradient
       inkscape:collect="always"
       id="linearGradient4701">
      <stop
         style="stop-color:#ffd172;stop-opacity:1"
         offset="0"
         id="stop4697" />
      <stop
         id="stop5115"
         offset="0.54674828"
         style="stop-color:#fed78a;stop-opacity:1" />
      <stop
         style="stop-color:#d0bcfd;stop-opacity:1"
         offset="0.83278227"
         id="stop5117" />
      <stop
         style="stop-color:#c4acff;stop-opacity:1"
         offset="1"
         id="stop4699" />
    </linearGradient>
    <linearGradient
       inkscape:collect="always"
       xlink:href="#linearGradient4701"
       id="linearGradient4703"
       x1="-1258.0377"
       y1="212.8101"
       x2="-1256.9686"
       y2="22.514194"
       gradientUnits="userSpaceOnUse" />
  </defs>
  <sodipodi:namedview
     id="base"
     pagecolor="#ffffff"
     bordercolor="#666666"
     borderopacity="1.0"
     inkscape:pageopacity="0.0"
     inkscape:pageshadow="2"
     inkscape:zoom="0.49497475"
     inkscape:cx="-4737.8021"
     inkscape:cy="625.54303"
     inkscape:document-units="px"
     inkscape:current-layer="layer2"
     showgrid="false"
     showborder="false"
     inkscape:snap-global="false"
     inkscape:window-width="1920"
     inkscape:window-height="1017"
     inkscape:window-x="1912"
     inkscape:window-y="-8"
     inkscape:window-maximized="1" />
  <metadata
     id="metadata5">
    <rdf:RDF>
      <cc:Work
         rdf:about="">
        <dc:format>image/svg+xml</dc:format>
        <dc:type
           rdf:resource="http://purl.org/dc/dcmitype/StillImage" />
        <dc:title></dc:title>
      </cc:Work>
    </rdf:RDF>
  </metadata>
  <g
     inkscape:groupmode="layer"
     id="layer2"
     inkscape:label="Layer 2">
    <g
       id="g4685"
       transform="translate(647.09524,-173.86905)">
      <rect
         y="116.12168"
         x="-903.37091"
         height="190.5"
         width="338.66666"
         id="rect4524"
         style="fill:#afe9c6;fill-opacity:1;stroke:none;stroke-width:0.27949619;stroke-miterlimit:4;stroke-dasharray:none;stroke-opacity:1" />
      <path
         id="path4611"
         d="m -758.47413,139.61156 a 16.03617,19.115979 0 0 1 13.93661,9.68615 16.03617,19.115979 0 0 1 12.25558,-6.81862 16.03617,19.115979 0 0 1 12.9899,7.93791 16.03617,19.115979 0 0 1 10.26295,-4.43342 16.03617,19.115979 0 0 1 12.61163,7.34469 16.03617,19.115979 0 0 1 11.17502,-5.43321 16.03617,19.115979 0 0 1 9.8356,4.02871 16.03617,19.115979 0 0 1 14.75308,-11.67464 16.03617,19.115979 0 0 1 13.20695,8.27673 16.03617,19.115979 0 0 1 10.58023,-4.77225 16.03617,19.115979 0 0 1 11.95277,6.40098 16.03617,19.115979 0 0 1 12.63591,-7.35703 16.03617,19.115979 0 0 1 14.45753,10.90032 16.03617,19.115979 0 0 1 4.25143,-0.70534 16.03617,19.115979 0 0 1 8.93175,3.25871 16.03617,19.115979 0 0 1 12.44986,-7.08167 16.03617,19.115979 0 0 1 7.48329,2.22257 v 33.78697 a 16.03617,19.115979 0 0 1 -7.48329,2.22256 16.03617,19.115979 0 0 1 -8.93175,-3.25869 16.03617,19.115979 0 0 1 -12.44986,7.08166 16.03617,19.115979 0 0 1 -14.45752,-10.90031 16.03617,19.115979 0 0 1 -4.25144,0.70534 16.03617,19.115979 0 0 1 -11.95276,-6.4016 16.03617,19.115979 0 0 1 -12.63592,7.35702 16.03617,19.115979 0 0 1 -13.20641,-8.27672 16.03617,19.115979 0 0 1 -10.58077,4.77223 16.03617,19.115979 0 0 1 -9.83506,-4.0287 16.03617,19.115979 0 0 1 -14.75362,11.67525 16.03617,19.115979 0 0 1 -12.61163,-7.3447 16.03617,19.115979 0 0 1 -11.17502,5.43322 16.03617,19.115979 0 0 1 -12.99043,-7.93792 16.03617,19.115979 0 0 1 -10.26242,4.43344 16.03617,19.115979 0 0 1 -13.93661,-9.68617 16.03617,19.115979 0 0 1 -12.25558,6.81863 16.03617,19.115979 0 0 1 -8.14266,-2.67349 16.03617,19.115979 0 0 1 -14.84251,11.91304 16.03617,19.115979 0 0 1 -14.81148,-11.80647 16.03617,19.115979 0 0 1 -10.31203,4.4784 16.03617,19.115979 0 0 1 -9.02531,-3.33816 16.03617,19.115979 0 0 1 -14.49419,10.9847 16.03617,19.115979 0 0 1 -13.32632,-8.49971 16.03617,19.115979 0 0 1 -9.1245,3.40223 16.03617,19.115979 0 0 1 -9.34001,-3.60674 16.03617,19.115979 0 0 1 -14.71435,11.57175 16.03617,19.115979 0 0 1 -13.3749,-8.59457 16.03617,19.115979 0 0 1 -4.6886,0.83838 16.03617,19.115979 0 0 1 -8.69971,-3.07943 v -32.0911 a 16.03617,19.115979 0 0 1 8.69971,-3.06095 16.03617,19.115979 0 0 1 13.3749,8.59397 16.03617,19.115979 0 0 1 4.6886,-0.8384 16.03617,19.115979 0 0 1 9.34,3.60613 16.03617,19.115979 0 0 1 14.71436,-11.57115 16.03617,19.115979 0 0 1 13.32629,8.49911 16.03617,19.115979 0 0 1 9.12453,-3.40162 16.03617,19.115979 0 0 1 9.02528,3.33879 16.03617,19.115979 0 0 1 14.49422,-10.98533 16.03617,19.115979 0 0 1 14.81148,11.80646 16.03617,19.115979 0 0 1 10.31203,-4.47839 16.03617,19.115979 0 0 1 8.14265,2.67348 16.03617,19.115979 0 0 1 14.84252,-11.91303 z"
         style="fill:#77bc95;fill-opacity:1;stroke:none;stroke-width:0.57775062;stroke-miterlimit:4;stroke-dasharray:none;stroke-opacity:1"
         inkscape:connector-curvature="0" />
      <path
         id="path4609"
         d="m -579.77887,213.08497 a 24.722431,36.021437 0 0 1 15.83057,8.36437 v 49.6425 h -338.66666 v -35.45606 a 20.227443,29.472083 0 0 1 3.93462,-0.59144 20.227443,29.472083 0 0 1 7.24194,1.96053 20.227443,29.472083 0 0 1 18.41595,-17.37085 20.227443,29.472083 0 0 1 15.62486,10.78081 20.227443,29.472083 0 0 1 11.63651,-5.38705 20.227443,29.472083 0 0 1 18.32189,17.06396 20.227443,29.472083 0 0 1 7.3365,-2.03876 20.227443,29.472083 0 0 1 13.75937,7.90403 20.227443,29.472083 0 0 1 16.70904,-12.91267 20.227443,29.472083 0 0 1 13.45758,7.51742 20.227443,29.472083 0 0 1 18.34772,-17.14885 20.227443,29.472083 0 0 1 6.71793,1.70725 24.590225,35.828806 0 0 1 18.85312,-12.87987 24.590225,35.828806 0 0 1 19.07273,13.25532 20.227443,29.472083 0 0 1 10.14616,-4.009 20.227443,29.472083 0 0 1 17.06975,13.72239 27.71099,29.472083 0 0 1 17.67541,-6.78745 27.71099,29.472083 0 0 1 13.41623,3.72223 20.227443,29.472083 0 0 1 17.85422,-15.66581 20.227443,29.472083 0 0 1 15.82023,11.15548 20.227443,29.472083 0 0 1 11.97599,-5.76173 20.227443,29.472083 0 0 1 9.69193,3.63879 24.722431,36.021437 0 0 1 19.75641,-14.42554 z"
         style="fill:#77bc95;fill-opacity:1;stroke:none;stroke-width:0.63531989;stroke-miterlimit:4;stroke-dasharray:none;stroke-opacity:1"
         inkscape:connector-curvature="0" />
      <path
         inkscape:connector-curvature="0"
         style="fill:#53b67e;fill-opacity:1;stroke:none;stroke-width:0.52916664;stroke-miterlimit:4;stroke-dasharray:none;stroke-opacity:1"
         d="m -709.60061,128.65025 a 16.03617,16.03617 0 0 0 -13.93661,8.1256 16.03617,16.03617 0 0 0 -12.25558,-5.72006 16.03617,16.03617 0 0 0 -12.9899,6.65902 16.03617,16.03617 0 0 0 -10.26295,-3.71915 16.03617,16.03617 0 0 0 -12.61163,6.16138 16.03617,16.03617 0 0 0 -11.17502,-4.55786 16.03617,16.03617 0 0 0 -9.8356,3.37964 16.03617,16.03617 0 0 0 -14.75308,-9.79372 16.03617,16.03617 0 0 0 -13.20695,6.94325 16.03617,16.03617 0 0 0 -10.58023,-4.00338 16.03617,16.03617 0 0 0 -11.95277,5.3697 16.03617,16.03617 0 0 0 -12.63591,-6.17172 16.03617,16.03617 0 0 0 -14.45753,9.14415 16.03617,16.03617 0 0 0 -4.25143,-0.5917 16.03617,16.03617 0 0 0 -8.93175,2.73369 16.03617,16.03617 0 0 0 -12.44986,-5.94073 16.03617,16.03617 0 0 0 -7.48329,1.86449 v 28.34349 a 16.03617,16.03617 0 0 0 7.48329,1.86448 16.03617,16.03617 0 0 0 8.93175,-2.73368 16.03617,16.03617 0 0 0 12.44986,5.94072 16.03617,16.03617 0 0 0 14.45752,-9.14414 16.03617,16.03617 0 0 0 4.25144,0.5917 16.03617,16.03617 0 0 0 11.95276,-5.37022 16.03617,16.03617 0 0 0 12.63592,6.17171 16.03617,16.03617 0 0 0 13.20641,-6.94324 16.03617,16.03617 0 0 0 10.58077,4.00337 16.03617,16.03617 0 0 0 9.83506,-3.37963 16.03617,16.03617 0 0 0 14.75362,9.79423 16.03617,16.03617 0 0 0 12.61163,-6.16138 16.03617,16.03617 0 0 0 11.17502,4.55786 16.03617,16.03617 0 0 0 12.99043,-6.65903 16.03617,16.03617 0 0 0 10.26242,3.71916 16.03617,16.03617 0 0 0 13.93661,-8.12561 16.03617,16.03617 0 0 0 12.25558,5.72007 16.03617,16.03617 0 0 0 8.14266,-2.24276 16.03617,16.03617 0 0 0 14.84251,9.99371 16.03617,16.03617 0 0 0 14.81148,-9.90431 16.03617,16.03617 0 0 0 10.31203,3.75688 16.03617,16.03617 0 0 0 9.02531,-2.80035 16.03617,16.03617 0 0 0 14.49419,9.21494 16.03617,16.03617 0 0 0 13.32632,-7.13031 16.03617,16.03617 0 0 0 9.1245,2.85409 16.03617,16.03617 0 0 0 9.34001,-3.02565 16.03617,16.03617 0 0 0 14.71435,9.70741 16.03617,16.03617 0 0 0 13.3749,-7.20989 16.03617,16.03617 0 0 0 4.6886,0.70331 16.03617,16.03617 0 0 0 8.69971,-2.5833 v -26.92084 a 16.03617,16.03617 0 0 0 -8.69971,-2.5678 16.03617,16.03617 0 0 0 -13.3749,7.20938 16.03617,16.03617 0 0 0 -4.6886,-0.70332 16.03617,16.03617 0 0 0 -9.34,3.02514 16.03617,16.03617 0 0 0 -14.71436,-9.7069 16.03617,16.03617 0 0 0 -13.32629,7.1298 16.03617,16.03617 0 0 0 -9.12453,-2.85358 16.03617,16.03617 0 0 0 -9.02528,2.80087 16.03617,16.03617 0 0 0 -14.49422,-9.21546 16.03617,16.03617 0 0 0 -14.81148,9.9043 16.03617,16.03617 0 0 0 -10.31203,-3.75687 16.03617,16.03617 0 0 0 -8.14265,2.24275 16.03617,16.03617 0 0 0 -14.84252,-9.9937 z"
         id="path4607" />
      <path
         inkscape:connector-curvature="0"
         id="path4605"
         d="m -578.68156,181.71725 -18.52083,-2.83482 -11.52827,-20.22172 h -3.59077 l 10.01636,24.37946 24.37948,7.74851 z"
         style="fill:#53b67e;fill-opacity:1;stroke:none;stroke-width:0.26458332px;stroke-linecap:butt;stroke-linejoin:miter;stroke-opacity:1" />
      <path
         style="fill:#53b67e;fill-opacity:1;stroke:none;stroke-width:0.19392562px;stroke-linecap:butt;stroke-linejoin:miter;stroke-opacity:1"
         d="m -581.37093,148.20973 c 0,0 7.21098,21.55096 9.24602,32.69111 3.0873,16.90035 4.67574,34.17274 4.41349,51.35077 -0.18847,12.34559 -4.29698,36.79101 -4.29698,36.79101 l -42.15934,0.22755 c 0,0 22.26787,-24.82005 27.40029,-40.20435 5.37458,-16.11015 3.61932,-33.96151 2.33201,-50.89567 -0.77787,-10.2327 -6.04189,-30.18798 -6.04189,-30.18798 z"
         id="path4603"
         inkscape:connector-curvature="0"
         sodipodi:nodetypes="caaccaacc" />
      <path
         style="fill:#53b67e;fill-opacity:1;stroke:none;stroke-width:0.16930699px;stroke-linecap:butt;stroke-linejoin:miter;stroke-opacity:1"
         d="m -766.55158,157.48722 c 0,0 -4.20779,21.6457 -3.51066,32.23707 0.78743,11.96343 10.21142,22.61418 8.65002,34.75874 -1.45543,11.32045 -16.46643,32.96153 -16.46643,32.96153 l 31.95426,-6.63616 c 0,0 3.49956,-22.92312 1.3536,-33.85147 -2.00695,-10.22033 -11.18299,-18.52309 -13.12914,-28.75559 -2.0304,-10.67549 1.70472,-33.05563 1.70472,-33.05563 z"
         id="path4599"
         inkscape:connector-curvature="0"
         sodipodi:nodetypes="caaccaacc" />
      <path
         inkscape:connector-curvature="0"
         id="path4601"
         d="m -648.60715,177.18154 -18.52083,-2.83482 -11.52827,-20.22172 h -3.59077 l 10.01636,24.37946 24.37948,7.74851 z"
         style="fill:#31b968;fill-opacity:1;stroke:none;stroke-width:0.26458332px;stroke-linecap:butt;stroke-linejoin:miter;stroke-opacity:1" />
      <path
         inkscape:connector-curvature="0"
         style="fill:#53b67e;fill-opacity:1;stroke:none;stroke-width:0.52916664;stroke-miterlimit:4;stroke-dasharray:none;stroke-opacity:1"
         d="m -887.54034,241.81116 a 24.722431,24.9897 0 0 0 -15.83057,5.80274 v 34.43925 h 338.66666 v -24.59747 a 20.227443,20.446117 0 0 0 -3.93462,-0.41031 20.227443,20.446117 0 0 0 -7.24194,1.36011 20.227443,20.446117 0 0 0 -18.41595,-12.05095 20.227443,20.446117 0 0 0 -15.62486,7.47914 20.227443,20.446117 0 0 0 -11.63651,-3.73724 20.227443,20.446117 0 0 0 -18.32189,11.83804 20.227443,20.446117 0 0 0 -7.3365,-1.41438 20.227443,20.446117 0 0 0 -13.75937,5.48338 20.227443,20.446117 0 0 0 -16.70904,-8.9581 20.227443,20.446117 0 0 0 -13.45758,5.21517 20.227443,20.446117 0 0 0 -18.34772,-11.89693 20.227443,20.446117 0 0 0 -6.71793,1.1844 24.590225,24.856063 0 0 0 -18.85312,-8.93535 24.590225,24.856063 0 0 0 -19.07273,9.19581 20.227443,20.446117 0 0 0 -10.14616,-2.78122 20.227443,20.446117 0 0 0 -17.06975,9.51984 27.71099,20.446117 0 0 0 -17.67541,-4.70876 27.71099,20.446117 0 0 0 -13.41623,2.58228 20.227443,20.446117 0 0 0 -17.85422,-10.86808 20.227443,20.446117 0 0 0 -15.82023,7.73906 20.227443,20.446117 0 0 0 -11.97599,-3.99717 20.227443,20.446117 0 0 0 -9.69193,2.52439 24.722431,24.9897 0 0 0 -19.75641,-10.00765 z"
         id="path4591" />
      <path
         sodipodi:nodetypes="caaccaacc"
         inkscape:connector-curvature="0"
         id="path4595"
         d="m -646.61306,150.69967 c 0,0 -8.42716,27.56635 -9.88198,41.81432 -1.64328,16.09373 5.34014,32.82569 1.38607,48.51243 -3.68575,14.62227 -22.57267,39.20505 -22.57267,39.20505 l 32.27563,-10e-6 c 0,0 7.99826,-29.45683 8.11795,-44.55131 0.11193,-14.11655 -7.10359,-27.66417 -6.93036,-41.7801 0.18073,-14.72708 8.2979,-43.39839 8.2979,-43.39839 z"
         style="fill:#31b968;fill-opacity:1;stroke:none;stroke-width:0.19601986px;stroke-linecap:butt;stroke-linejoin:miter;stroke-opacity:1" />
      <path
         style="fill:#31b968;fill-opacity:1;stroke:none;stroke-width:0.2166691px;stroke-linecap:butt;stroke-linejoin:miter;stroke-opacity:1"
         d="m -798.42774,147.10322 c 0,0 -16.16731,22.93975 -15.4863,35.97865 0.74895,14.33978 17.32143,23.7148 21.06065,37.57873 4.78159,17.72876 0.88445,55.07968 0.88445,55.07968 l -33.50498,-0.23736 c 0,0 13.66927,-30.87054 13.2147,-47.20374 -0.47092,-16.921 -18.04732,-31.21925 -16.38894,-48.06537 1.25916,-12.79088 19.32123,-33.36793 19.32123,-33.36793 z"
         id="path4593"
         inkscape:connector-curvature="0"
         sodipodi:nodetypes="caaccaacc" />
      <path
         sodipodi:nodetypes="caaccaacc"
         inkscape:connector-curvature="0"
         id="path4488"
         d="m -719.04221,140.31194 c 0,0 -18.41504,23.73856 -20.04523,37.95228 -2.35144,20.50235 21.41642,40.0194 15.76892,59.86836 -5.84629,20.54767 -46.50491,44.09949 -46.50491,44.09949 l 66.81739,0.26726 c 0,0 11.65973,-31.83311 9.88898,-48.10852 -2.34227,-21.52839 -26.29179,-37.67905 -26.4597,-59.33383 -0.0984,-12.69203 14.96709,-35.01231 14.96709,-35.01231 z"
         style="fill:#195b34;fill-opacity:1;stroke:none;stroke-width:0.26458332px;stroke-linecap:butt;stroke-linejoin:miter;stroke-opacity:1" />
      <path
         style="fill:#195b34;fill-opacity:1;stroke:none;stroke-width:0.26458332px;stroke-linecap:butt;stroke-linejoin:miter;stroke-opacity:1"
         d="m -608.54862,139.55598 c 0,0 -6.17677,23.14166 -7.2163,35.01232 -1.90491,21.75266 7.36859,44.34852 1.87091,65.48102 -4.07376,15.65907 -24.85608,41.69406 -24.85608,41.69406 l 43.56494,-10e-6 c 0,0 5.80064,-32.51613 5.3454,-48.91033 -0.52892,-19.04747 -9.08263,-37.34098 -9.35445,-56.39386 -0.1783,-12.49737 5.07812,-37.15047 5.07812,-37.15047 z"
         id="path4490"
         inkscape:connector-curvature="0"
         sodipodi:nodetypes="caaccaacc" />
      <path
         sodipodi:nodetypes="caaccaacc"
         inkscape:connector-curvature="0"
         id="path4492"
         d="m -870.21384,135.41589 c 0,0 15.25647,25.76485 15.50162,40.09044 0.37121,21.69161 -17.10987,40.20189 -21.38154,61.47198 -2.84716,14.17696 -2.67271,43.29768 -2.67271,43.29768 l 44.36675,-0.26728 c 0,0 -10.95269,-30.72678 -11.49258,-46.77217 -0.69352,-20.61105 14.10052,-40.59858 10.69076,-60.93745 -2.34065,-13.96176 -20.57976,-37.15047 -20.57976,-37.15047 z"
         style="fill:#195b34;fill-opacity:1;stroke:none;stroke-width:0.26458332px;stroke-linecap:butt;stroke-linejoin:miter;stroke-opacity:1" />
      <path
         inkscape:connector-curvature="0"
         style="fill:#2ba15a;fill-opacity:1;stroke:none;stroke-width:0.52916664;stroke-miterlimit:4;stroke-dasharray:none;stroke-opacity:1"
         d="m -887.54012,256.49064 a 24.722431,24.9897 0 0 0 -15.83058,5.80274 v 34.43925 h 338.66666 v -24.59747 a 20.227443,20.446117 0 0 0 -3.93462,-0.41031 20.227443,20.446117 0 0 0 -7.24193,1.36011 20.227443,20.446117 0 0 0 -18.41596,-12.05095 20.227443,20.446117 0 0 0 -15.62486,7.47914 20.227443,20.446117 0 0 0 -11.63651,-3.73724 20.227443,20.446117 0 0 0 -18.32189,11.83804 20.227443,20.446117 0 0 0 -7.3365,-1.41438 20.227443,20.446117 0 0 0 -13.75936,5.48338 20.227443,20.446117 0 0 0 -16.70905,-8.9581 20.227443,20.446117 0 0 0 -13.45758,5.21517 20.227443,20.446117 0 0 0 -18.34772,-11.89694 20.227443,20.446117 0 0 0 -6.71792,1.18441 24.590225,24.856063 0 0 0 -18.85313,-8.93535 24.590225,24.856063 0 0 0 -19.07273,9.19581 20.227443,20.446117 0 0 0 -10.14616,-2.78122 20.227443,20.446117 0 0 0 -17.06975,9.51984 27.71099,20.446117 0 0 0 -17.67541,-4.70877 27.71099,20.446117 0 0 0 -13.41623,2.58228 20.227443,20.446117 0 0 0 -17.85421,-10.86807 20.227443,20.446117 0 0 0 -15.82023,7.73906 20.227443,20.446117 0 0 0 -11.976,-3.99717 20.227443,20.446117 0 0 0 -9.69192,2.52439 24.722431,24.9897 0 0 0 -19.75641,-10.00765 z"
         id="path4539" />
      <path
         id="path4494"
         transform="scale(0.26458333)"
         d="m -3354.4824,1006.7891 a 93.439109,94.44926 0 0 0 -59.8321,21.9316 v 130.1641 h 1280 v -92.9668 a 76.450178,77.276662 0 0 0 -14.871,-1.5508 76.450178,77.276662 0 0 0 -27.3711,5.1406 76.450178,77.276662 0 0 0 -69.6036,-45.5469 76.450178,77.276662 0 0 0 -59.0546,28.2676 76.450178,77.276662 0 0 0 -43.9805,-14.125 76.450178,77.276662 0 0 0 -69.2481,44.7422 76.450178,77.276662 0 0 0 -27.7285,-5.3457 76.450178,77.276662 0 0 0 -52.0039,20.7246 76.450178,77.276662 0 0 0 -63.1523,-33.8574 76.450178,77.276662 0 0 0 -50.8633,19.7109 76.450178,77.276662 0 0 0 -69.3457,-44.9648 76.450178,77.276662 0 0 0 -25.3906,4.4765 92.939433,93.944175 0 0 0 -71.2559,-33.7714 92.939433,93.944175 0 0 0 -72.0859,34.7558 76.450178,77.276662 0 0 0 -38.3477,-10.5117 76.450178,77.276662 0 0 0 -64.5156,35.9805 104.73445,77.276662 0 0 0 -66.8047,-17.7969 104.73445,77.276662 0 0 0 -50.707,9.7598 76.450178,77.276662 0 0 0 -67.4805,-41.0762 76.450178,77.276662 0 0 0 -59.793,29.25 76.450178,77.276662 0 0 0 -45.2636,-15.1074 76.450178,77.276662 0 0 0 -36.6309,9.541 93.439109,94.44926 0 0 0 -74.6699,-37.8242 z"
         style="fill:#195b34;fill-opacity:1;stroke:none;stroke-width:1.99999988;stroke-miterlimit:4;stroke-dasharray:none;stroke-opacity:1"
         inkscape:connector-curvature="0" />
      <path
         inkscape:connector-curvature="0"
         style="fill:#195b34;fill-opacity:1;stroke:none;stroke-width:0.52916664;stroke-miterlimit:4;stroke-dasharray:none;stroke-opacity:1"
         d="m -580.53462,156.36367 a 24.722431,24.9897 0 0 0 15.83058,-5.80274 V 116.12168 H -903.3707 v 24.59747 a 20.227443,20.446117 0 0 0 3.93462,0.41031 20.227443,20.446117 0 0 0 7.24193,-1.36011 20.227443,20.446117 0 0 0 18.41596,12.05095 20.227443,20.446117 0 0 0 15.62486,-7.47914 20.227443,20.446117 0 0 0 11.63651,3.73724 20.227443,20.446117 0 0 0 18.32189,-11.83804 20.227443,20.446117 0 0 0 7.3365,1.41438 20.227443,20.446117 0 0 0 13.75936,-5.48338 20.227443,20.446117 0 0 0 16.70905,8.9581 20.227443,20.446117 0 0 0 13.45758,-5.21517 20.227443,20.446117 0 0 0 18.34772,11.89693 20.227443,20.446117 0 0 0 6.71792,-1.1844 24.590225,24.856063 0 0 0 18.85313,8.93535 24.590225,24.856063 0 0 0 19.07273,-9.19581 20.227443,20.446117 0 0 0 10.14616,2.78122 20.227443,20.446117 0 0 0 17.06975,-9.51984 27.71099,20.446117 0 0 0 17.67541,4.70877 27.71099,20.446117 0 0 0 13.41623,-2.58229 20.227443,20.446117 0 0 0 17.85421,10.86808 20.227443,20.446117 0 0 0 15.82023,-7.73906 20.227443,20.446117 0 0 0 11.976,3.99717 20.227443,20.446117 0 0 0 9.69192,-2.52439 24.722431,24.9897 0 0 0 19.75641,10.00765 z"
         id="path4541" />
      <path
         inkscape:connector-curvature="0"
         id="path4577"
         d="m -843.23535,174.32329 24.85607,-1.33635 6.41447,-28.59784 3.74177,0.80181 -4.81084,32.33961 -29.93419,6.41447 z"
         style="fill:#195b34;fill-opacity:1;stroke:none;stroke-width:0.26458332px;stroke-linecap:butt;stroke-linejoin:miter;stroke-opacity:1" />
      <path
         style="fill:#195b34;fill-opacity:1;stroke:none;stroke-width:0.17340934px;stroke-linecap:butt;stroke-linejoin:miter;stroke-opacity:1"
         d="m -853.42951,167.48264 -16.29081,-0.87586 -4.20407,-18.74317 -2.45238,0.52551 3.15305,21.19555 19.61903,4.20408 z"
         id="path4579"
         inkscape:connector-curvature="0" />
      <path
         sodipodi:nodetypes="ccccccc"
         style="fill:#195b34;fill-opacity:1;stroke:none;stroke-width:0.17698479px;stroke-linecap:butt;stroke-linejoin:miter;stroke-opacity:1"
         d="m -722.96406,176.43977 17.96304,-7.04111 15.51609,-17.25875 2.50294,0.53635 -14.44339,19.76168 -21.35989,10.43797 z"
         id="path4581"
         inkscape:connector-curvature="0" />
      <path
         inkscape:connector-curvature="0"
         id="path4583"
         d="m -731.82188,180.84612 -16.29081,-0.87586 -4.20407,-18.74317 -2.45238,0.52551 3.15305,21.19555 19.61903,4.20408 z"
         style="fill:#195b34;fill-opacity:1;stroke:none;stroke-width:0.17340934px;stroke-linecap:butt;stroke-linejoin:miter;stroke-opacity:1" />
      <path
         inkscape:connector-curvature="0"
         id="path4587"
         d="m -601.3601,172.26785 18.52083,-2.83482 11.52827,-20.22172 h 3.59077 l -10.01636,24.37946 -24.37948,7.74851 z"
         style="fill:#195b34;fill-opacity:1;stroke:none;stroke-width:0.26458332px;stroke-linecap:butt;stroke-linejoin:miter;stroke-opacity:1" />
      <path
         style="fill:#195b34;fill-opacity:1;stroke:none;stroke-width:0.26458332px;stroke-linecap:butt;stroke-linejoin:miter;stroke-opacity:1"
         d="m -607.40775,163.95237 -18.52083,-2.83482 -11.52827,-20.22172 h -3.59077 l 10.01636,24.37946 24.37948,7.74851 z"
         id="path4589"
         inkscape:connector-curvature="0" />
      <path
         sodipodi:nodetypes="ccccccc"
         style="fill:#31b968;fill-opacity:1;stroke:none;stroke-width:0.18873656px;stroke-linecap:butt;stroke-linejoin:miter;stroke-opacity:1"
         d="m -813.7532,191.44458 26.80214,-16.82826 4.57566,-20.39984 2.66914,0.57195 -3.43174,23.06898 -30.42454,20.45067 z"
         id="path4597"
         inkscape:connector-curvature="0" />
      <path
         inkscape:connector-curvature="0"
         id="path4613"
         d="m -806.71415,149.95548 v 17.47594 h 2.31616 v -17.47594 z m 21.60283,0 v 17.47594 h 2.31614 v -17.47594 z m -21.60283,17.47645 a 11.959422,11.959422 0 0 0 5.98001,10.35648 11.959422,11.959422 0 0 0 11.95948,0 11.959422,11.959422 0 0 0 5.97948,-10.35648 h -2.358 a 9.6012258,9.6012258 0 0 1 -4.80075,8.31422 9.6012258,9.6012258 0 0 1 -9.60097,0 9.6012258,9.6012258 0 0 1 -4.80073,-8.31422 z"
         style="fill:#195b34;fill-opacity:1;stroke:none;stroke-width:0.23581959;stroke-miterlimit:4;stroke-dasharray:none;stroke-opacity:1" />
      <path
         inkscape:connector-curvature="0"
         style="fill:#195b34;fill-opacity:1;stroke:none;stroke-width:0.23581959;stroke-miterlimit:4;stroke-dasharray:none;stroke-opacity:1"
         d="m -698.24261,149.02722 v 17.47594 h 2.31616 v -17.47594 z m 21.60283,0 v 17.47594 h 2.31613 v -17.47594 z m -21.60283,17.47646 a 11.959422,11.959422 0 0 0 5.98,10.35647 11.959422,11.959422 0 0 0 11.95949,0 11.959422,11.959422 0 0 0 5.97947,-10.35647 h -2.35799 a 9.6012258,9.6012258 0 0 1 -4.80076,8.31422 9.6012258,9.6012258 0 0 1 -9.60096,0 9.6012258,9.6012258 0 0 1 -4.80073,-8.31422 z"
         id="path4631" />
      <path
         id="path4633"
         d="m -596.10576,152.3609 v 23.82315 h 2.31616 V 152.3609 Z m 21.60283,0 v 23.82315 h 2.31613 V 152.3609 Z m -21.60283,23.82386 a 11.959422,16.303049 0 0 0 5.98,14.11791 11.959422,16.303049 0 0 0 11.95949,0 11.959422,16.303049 0 0 0 5.97947,-14.11791 h -2.35799 a 9.6012258,13.088363 0 0 1 -4.80076,11.33392 9.6012258,13.088363 0 0 1 -9.60096,0 9.6012258,13.088363 0 0 1 -4.80073,-11.33392 z"
         style="fill:#195b34;fill-opacity:1;stroke:none;stroke-width:0.27533358;stroke-miterlimit:4;stroke-dasharray:none;stroke-opacity:1"
         inkscape:connector-curvature="0" />
      <path
         style="fill:#53b67e;fill-opacity:1;stroke:none;stroke-width:0.16087672;stroke-miterlimit:4;stroke-dasharray:none;stroke-opacity:1"
         d="m -891.70586,161.71534 v 11.92213 h 1.58009 v -11.92213 z m 14.73751,0 v 11.92213 h 1.58007 v -11.92213 z m -14.73751,11.92248 a 8.1587481,8.1587481 0 0 0 4.07958,7.06522 8.1587481,8.1587481 0 0 0 8.15879,0 8.1587481,8.1587481 0 0 0 4.07921,-7.06522 h -1.60863 a 6.5499806,6.5499806 0 0 1 -3.27509,5.67198 6.5499806,6.5499806 0 0 1 -6.5498,0 6.5499806,6.5499806 0 0 1 -3.27507,-5.67198 z"
         id="path4635"
         inkscape:connector-curvature="0" />
      <path
         inkscape:connector-curvature="0"
         id="path4637"
         d="m -776.77996,160.64626 v 11.92213 h 1.58009 v -11.92213 z m 14.73751,0 v 11.92213 h 1.58007 v -11.92213 z m -14.73751,11.92248 a 8.1587481,8.1587481 0 0 0 4.07958,7.06522 8.1587481,8.1587481 0 0 0 8.15879,0 8.1587481,8.1587481 0 0 0 4.07921,-7.06522 h -1.60863 a 6.5499806,6.5499806 0 0 1 -3.27509,5.67198 6.5499806,6.5499806 0 0 1 -6.5498,0 6.5499806,6.5499806 0 0 1 -3.27507,-5.67198 z"
         style="fill:#53b67e;fill-opacity:1;stroke:none;stroke-width:0.16087672;stroke-miterlimit:4;stroke-dasharray:none;stroke-opacity:1" />
      <path
         style="fill:#53b67e;fill-opacity:1;stroke:none;stroke-width:0.16087672;stroke-miterlimit:4;stroke-dasharray:none;stroke-opacity:1"
         d="m -669.18239,153.28916 v 11.92213 h 1.58009 v -11.92213 z m 14.73751,0 v 11.92213 h 1.58007 v -11.92213 z m -14.73751,11.92248 a 8.1587481,8.1587481 0 0 0 4.07958,7.06522 8.1587481,8.1587481 0 0 0 8.15879,0 8.1587481,8.1587481 0 0 0 4.07921,-7.06522 h -1.60863 a 6.5499806,6.5499806 0 0 1 -3.27509,5.67198 6.5499806,6.5499806 0 0 1 -6.5498,0 6.5499806,6.5499806 0 0 1 -3.27507,-5.67198 z"
         id="path4639"
         inkscape:connector-curvature="0" />
      <path
         id="path4543"
         transform="scale(0.26458333)"
         d="m -2681.9551,454.80859 a 60.609148,60.609148 0 0 0 -52.6738,30.71094 60.609148,60.609148 0 0 0 -46.3203,-21.61914 60.609148,60.609148 0 0 0 -49.0957,25.16797 60.609148,60.609148 0 0 0 -38.7891,-14.05664 60.609148,60.609148 0 0 0 -47.666,23.28711 60.609148,60.609148 0 0 0 -42.2363,-17.22656 60.609148,60.609148 0 0 0 -37.1739,12.77343 60.609148,60.609148 0 0 0 -55.7597,-37.01562 60.609148,60.609148 0 0 0 -49.916,26.24219 60.609148,60.609148 0 0 0 -39.9883,-15.13086 60.609148,60.609148 0 0 0 -45.1758,20.29492 60.609148,60.609148 0 0 0 -47.7578,-23.32617 60.609148,60.609148 0 0 0 -54.6426,34.56054 60.609148,60.609148 0 0 0 -16.0684,-2.23632 60.609148,60.609148 0 0 0 -33.7578,10.33203 60.609148,60.609148 0 0 0 -47.0546,-22.45313 60.609148,60.609148 0 0 0 -28.2833,7.04688 v 107.125 a 60.609148,60.609148 0 0 0 28.2833,7.04687 60.609148,60.609148 0 0 0 33.7578,-10.33203 60.609148,60.609148 0 0 0 47.0546,22.45312 60.609148,60.609148 0 0 0 54.6426,-34.56054 60.609148,60.609148 0 0 0 16.0684,2.23633 60.609148,60.609148 0 0 0 45.1758,-20.29688 60.609148,60.609148 0 0 0 47.7578,23.32617 60.609148,60.609148 0 0 0 49.914,-26.24218 60.609148,60.609148 0 0 0 39.9903,15.13086 60.609148,60.609148 0 0 0 37.1719,-12.77344 60.609148,60.609148 0 0 0 55.7617,37.01758 60.609148,60.609148 0 0 0 42.4687,-17.52735 51.0127,51.0127 0 0 0 -0.043,0.85938 51.0127,51.0127 0 0 0 51.0136,51.01367 51.0127,51.0127 0 0 0 51.0117,-51.01367 51.0127,51.0127 0 0 0 -1.3769,-11.4961 60.609148,60.609148 0 0 0 34.7129,10.99219 60.609148,60.609148 0 0 0 52.6738,-30.71094 60.609148,60.609148 0 0 0 46.3203,21.61914 60.609148,60.609148 0 0 0 30.7754,-8.47656 60.609148,60.609148 0 0 0 56.0977,37.77149 60.609148,60.609148 0 0 0 55.9804,-37.4336 60.609148,60.609148 0 0 0 38.9746,14.19922 60.609148,60.609148 0 0 0 34.1114,-10.58398 60.609148,60.609148 0 0 0 54.7812,34.82812 60.609148,60.609148 0 0 0 50.3672,-26.94922 60.609148,60.609148 0 0 0 34.4863,10.78711 60.609148,60.609148 0 0 0 35.3008,-11.43554 60.609148,60.609148 0 0 0 55.6133,36.68945 60.609148,60.609148 0 0 0 50.5508,-27.25 60.609148,60.609148 0 0 0 17.7207,2.6582 60.609148,60.609148 0 0 0 32.8808,-9.76367 V 479.32031 a 60.609148,60.609148 0 0 0 -32.8808,-9.70508 60.609148,60.609148 0 0 0 -50.5508,27.24805 60.609148,60.609148 0 0 0 -17.7207,-2.6582 60.609148,60.609148 0 0 0 -35.3008,11.43359 60.609148,60.609148 0 0 0 -55.6133,-36.6875 60.609148,60.609148 0 0 0 -50.3671,26.94727 60.609148,60.609148 0 0 0 -34.4864,-10.78516 60.609148,60.609148 0 0 0 -34.1113,10.58594 60.609148,60.609148 0 0 0 -54.7813,-34.83008 60.609148,60.609148 0 0 0 -55.9804,37.43359 60.609148,60.609148 0 0 0 -38.9746,-14.19921 60.609148,60.609148 0 0 0 -30.7754,8.47656 60.609148,60.609148 0 0 0 -56.0977,-37.77149 z"
         style="fill:#2ba15a;fill-opacity:1;stroke:none;stroke-width:1.99999988;stroke-miterlimit:4;stroke-dasharray:none;stroke-opacity:1"
         inkscape:connector-curvature="0" />
      <path
         inkscape:connector-curvature="0"
         id="path4642"
         d="m -711.56619,178.01879 v 8.27248 h 1.09639 v -8.27248 z m 10.22601,0 v 8.27248 h 1.09637 v -8.27248 z m -10.22601,8.27273 a 5.661163,5.661163 0 0 0 2.83072,4.90239 5.661163,5.661163 0 0 0 5.6612,0 5.661163,5.661163 0 0 0 2.83046,-4.90239 H -701.36 a 4.5448772,4.5448772 0 0 1 -2.2725,3.93565 4.5448772,4.5448772 0 0 1 -4.54476,0 4.5448772,4.5448772 0 0 1 -2.27249,-3.93565 z"
         style="fill:#77bc95;fill-opacity:1;stroke:none;stroke-width:0.11162856;stroke-miterlimit:4;stroke-dasharray:none;stroke-opacity:1" />
      <path
         style="fill:#77bc95;fill-opacity:1;stroke:none;stroke-width:0.11162856;stroke-miterlimit:4;stroke-dasharray:none;stroke-opacity:1"
         d="m -787.47074,180.15695 v 8.27248 h 1.09639 v -8.27248 z m 10.22601,0 v 8.27248 h 1.09637 v -8.27248 z m -10.22601,8.27273 a 5.661163,5.661163 0 0 0 2.83072,4.90239 5.661163,5.661163 0 0 0 5.6612,0 5.661163,5.661163 0 0 0 2.83046,-4.90239 h -1.11619 a 4.5448772,4.5448772 0 0 1 -2.2725,3.93565 4.5448772,4.5448772 0 0 1 -4.54476,0 4.5448772,4.5448772 0 0 1 -2.27249,-3.93565 z"
         id="path4644"
         inkscape:connector-curvature="0" />
      <path
         inkscape:connector-curvature="0"
         id="path4646"
         d="m -882.88596,183.09691 v 8.27248 h 1.09639 v -8.27248 z m 10.22601,0 v 8.27248 h 1.09637 v -8.27248 z m -10.22601,8.27273 a 5.661163,5.661163 0 0 0 2.83072,4.90239 5.661163,5.661163 0 0 0 5.6612,0 5.661163,5.661163 0 0 0 2.83046,-4.90239 h -1.11619 a 4.5448772,4.5448772 0 0 1 -2.2725,3.93565 4.5448772,4.5448772 0 0 1 -4.54476,0 4.5448772,4.5448772 0 0 1 -2.27249,-3.93565 z"
         style="fill:#77bc95;fill-opacity:1;stroke:none;stroke-width:0.11162856;stroke-miterlimit:4;stroke-dasharray:none;stroke-opacity:1" />
      <path
         inkscape:connector-curvature="0"
         id="path4648"
         d="m -639.13615,177.21699 v 8.27248 h 1.09639 v -8.27248 z m 10.22601,0 v 8.27248 h 1.09637 v -8.27248 z m -10.22601,8.27273 a 5.661163,5.661163 0 0 0 2.83072,4.90239 5.661163,5.661163 0 0 0 5.6612,0 5.661163,5.661163 0 0 0 2.83046,-4.90239 h -1.11619 a 4.5448772,4.5448772 0 0 1 -2.2725,3.93565 4.5448772,4.5448772 0 0 1 -4.54476,0 4.5448772,4.5448772 0 0 1 -2.27249,-3.93565 z"
         style="fill:#77bc95;fill-opacity:1;stroke:none;stroke-width:0.11162856;stroke-miterlimit:4;stroke-dasharray:none;stroke-opacity:1" />
    </g>
    <g
       id="g5383"
       inkscape:export-xdpi="96"
       inkscape:export-ydpi="96">
      <rect
         y="22.589264"
         x="-1420.4344"
         height="190.5"
         width="338.66666"
         id="rect4687"
         style="fill:url(#linearGradient4703);fill-opacity:1;stroke:none;stroke-width:0.3344008;stroke-miterlimit:4;stroke-dasharray:none;stroke-opacity:1" />
      <path
         style="fill:#d98bae;fill-opacity:1;stroke:none;stroke-width:0.02559609;stroke-miterlimit:4;stroke-dasharray:none;stroke-opacity:1"
         d="m -1380.3984,145.85267 c 0,0 -0.3921,1.01343 -0.6299,1.50122 -0.2948,0.60472 -0.9851,1.76148 -0.9851,1.76148 l 0.6798,-0.28228 c -0.3855,0.72169 -0.9486,1.66556 -0.9486,1.66556 l 0.8267,-0.34327 c -0.4641,0.8848 -1.221,2.1532 -1.221,2.1532 l 0.8627,-0.35817 c -0.4392,0.69257 -1.0044,1.47342 -1.0044,1.47342 l 1.9261,-0.2912 v 0.83767 h 1.097 v -0.82694 l 1.853,0.2622 c 0,0 -0.5774,-0.76445 -1.027,-1.4494 l 0.8488,0.35242 c 0,0 -0.757,-1.2684 -1.2211,-2.1532 l 0.8268,0.34327 c 0,0 -0.5632,-0.94387 -0.9487,-1.66556 l 0.6799,0.28228 c 0,0 -0.6904,-1.15676 -0.9852,-1.76148 -0.2377,-0.48779 -0.6298,-1.50122 -0.6298,-1.50122 z"
         id="path4769"
         inkscape:connector-curvature="0" />
      <path
         inkscape:connector-curvature="0"
         id="path5010"
         d="m -1353.2314,142.54538 c 0,0 -0.3921,1.01343 -0.6299,1.50122 -0.2948,0.60472 -0.9851,1.76148 -0.9851,1.76148 l 0.6798,-0.28228 c -0.3855,0.72169 -0.9486,1.66556 -0.9486,1.66556 l 0.8267,-0.34327 c -0.4641,0.8848 -1.221,2.1532 -1.221,2.1532 l 0.8627,-0.35817 c -0.4392,0.69257 -1.0044,1.47342 -1.0044,1.47342 l 1.9261,-0.2912 v 0.83767 h 1.097 v -0.82694 l 1.853,0.2622 c 0,0 -0.5774,-0.76445 -1.027,-1.4494 l 0.8488,0.35242 c 0,0 -0.757,-1.2684 -1.2211,-2.1532 l 0.8268,0.34327 c 0,0 -0.5632,-0.94387 -0.9487,-1.66556 l 0.6799,0.28228 c 0,0 -0.6904,-1.15676 -0.9852,-1.76148 -0.2377,-0.48779 -0.6298,-1.50122 -0.6298,-1.50122 z"
         style="fill:#d98bae;fill-opacity:1;stroke:none;stroke-width:0.02559609;stroke-miterlimit:4;stroke-dasharray:none;stroke-opacity:1" />
      <path
         style="fill:#d98bae;fill-opacity:1;stroke:none;stroke-width:0.02857225;stroke-miterlimit:4;stroke-dasharray:none;stroke-opacity:1"
         d="m -1345.8157,140.94004 c 0,0 -0.4377,1.13127 -0.7032,1.67577 -0.3291,0.67504 -1.0996,1.9663 -1.0996,1.9663 l 0.7588,-0.3151 c -0.4303,0.8056 -1.0589,1.85922 -1.0589,1.85922 l 0.9228,-0.38319 c -0.518,0.98768 -1.3629,2.40356 -1.3629,2.40356 l 0.963,-0.39981 c -0.4903,0.7731 -1.1212,1.64474 -1.1212,1.64474 l 2.1501,-0.32506 v 0.93507 h 1.2245 v -0.92309 l 2.0685,0.29269 c 0,0 -0.6446,-0.85334 -1.1464,-1.61793 l 0.9474,0.39339 c 0,0 -0.845,-1.41588 -1.363,-2.40356 l 0.9229,0.38319 c 0,0 -0.6287,-1.05362 -1.059,-1.85922 l 0.7589,0.3151 c 0,0 -0.7706,-1.29126 -1.0997,-1.9663 -0.2653,-0.5445 -0.703,-1.67577 -0.703,-1.67577 z"
         id="path5012"
         inkscape:connector-curvature="0" />
      <path
         inkscape:connector-curvature="0"
         id="path5014"
         d="m -1313.1207,142.16846 c 0,0 -0.4377,1.13127 -0.7032,1.67577 -0.3291,0.67504 -1.0996,1.9663 -1.0996,1.9663 l 0.7588,-0.3151 c -0.4303,0.8056 -1.0589,1.85922 -1.0589,1.85922 l 0.9228,-0.38319 c -0.518,0.98768 -1.3629,2.40356 -1.3629,2.40356 l 0.963,-0.39981 c -0.4903,0.7731 -1.1212,1.64474 -1.1212,1.64474 l 2.1501,-0.32506 v 0.93507 h 1.2245 v -0.92309 l 2.0685,0.29269 c 0,0 -0.6446,-0.85334 -1.1464,-1.61793 l 0.9474,0.39339 c 0,0 -0.845,-1.41588 -1.363,-2.40356 l 0.9229,0.38319 c 0,0 -0.6287,-1.05362 -1.059,-1.85922 l 0.7589,0.3151 c 0,0 -0.7706,-1.29126 -1.0997,-1.9663 -0.2653,-0.5445 -0.703,-1.67577 -0.703,-1.67577 z"
         style="fill:#d98bae;fill-opacity:1;stroke:none;stroke-width:0.02857225;stroke-miterlimit:4;stroke-dasharray:none;stroke-opacity:1" />
      <path
         style="fill:#d98bae;fill-opacity:1;stroke:none;stroke-width:0.02261318;stroke-miterlimit:4;stroke-dasharray:none;stroke-opacity:1"
         d="m -1291.9033,148.49956 c 0,0 -0.3464,0.89533 -0.5565,1.32627 -0.2605,0.53425 -0.8703,1.55621 -0.8703,1.55621 l 0.6006,-0.24939 c -0.3406,0.63759 -0.8381,1.47146 -0.8381,1.47146 l 0.7304,-0.30327 c -0.41,0.78169 -1.0787,1.90227 -1.0787,1.90227 l 0.7622,-0.31643 c -0.3881,0.61187 -0.8874,1.30171 -0.8874,1.30171 l 1.7017,-0.25726 v 0.74005 h 0.9691 v -0.73057 l 1.6371,0.23165 c 0,0 -0.5102,-0.67537 -0.9073,-1.28049 l 0.7498,0.31134 c 0,0 -0.6688,-1.12058 -1.0787,-1.90227 l 0.7304,0.30327 c 0,0 -0.4976,-0.83387 -0.8382,-1.47146 l 0.6007,0.24939 c 0,0 -0.6099,-1.02196 -0.8704,-1.55621 -0.21,-0.43094 -0.5564,-1.32627 -0.5564,-1.32627 z"
         id="path5016"
         inkscape:connector-curvature="0" />
      <path
         inkscape:connector-curvature="0"
         id="path5018"
         d="m -1258.7323,153.61944 c 0,0 -0.3464,0.89533 -0.5565,1.32627 -0.2605,0.53425 -0.8703,1.55621 -0.8703,1.55621 l 0.6006,-0.24939 c -0.3406,0.63759 -0.8381,1.47146 -0.8381,1.47146 l 0.7304,-0.30327 c -0.41,0.78169 -1.0787,1.90227 -1.0787,1.90227 l 0.7622,-0.31643 c -0.3881,0.61187 -0.8874,1.30171 -0.8874,1.30171 l 1.7017,-0.25726 v 0.74005 h 0.9691 v -0.73057 l 1.6371,0.23165 c 0,0 -0.5102,-0.67537 -0.9073,-1.28049 l 0.7498,0.31134 c 0,0 -0.6688,-1.12058 -1.0787,-1.90227 l 0.7304,0.30327 c 0,0 -0.4976,-0.83387 -0.8382,-1.47146 l 0.6007,0.24939 c 0,0 -0.6099,-1.02196 -0.8704,-1.55621 -0.21,-0.43094 -0.5564,-1.32627 -0.5564,-1.32627 z"
         style="fill:#d98bae;fill-opacity:1;stroke:none;stroke-width:0.02261318;stroke-miterlimit:4;stroke-dasharray:none;stroke-opacity:1" />
      <path
         style="fill:#d98bae;fill-opacity:1;stroke:none;stroke-width:0.0275734;stroke-miterlimit:4;stroke-dasharray:none;stroke-opacity:1"
         d="m -1255.6348,151.95757 c 0,0 -0.4224,1.09172 -0.6785,1.61719 -0.3177,0.65144 -1.0612,1.89756 -1.0612,1.89756 l 0.7323,-0.30409 c -0.4153,0.77745 -1.0219,1.79423 -1.0219,1.79423 l 0.8906,-0.3698 c -0.5,0.95316 -1.3153,2.31954 -1.3153,2.31954 l 0.9294,-0.38584 c -0.4733,0.74608 -1.0821,1.58724 -1.0821,1.58724 l 2.075,-0.31369 v 0.90238 h 1.1816 v -0.89082 l 1.9962,0.28246 c 0,0 -0.6221,-0.82351 -1.1063,-1.56136 l 0.9143,0.37963 c 0,0 -0.8155,-1.36638 -1.3153,-2.31954 l 0.8906,0.3698 c 0,0 -0.6068,-1.01678 -1.0221,-1.79423 l 0.7325,0.30409 c 0,0 -0.7437,-1.24612 -1.0613,-1.89756 -0.2561,-0.52547 -0.6785,-1.61719 -0.6785,-1.61719 z"
         id="path5020"
         inkscape:connector-curvature="0" />
      <path
         inkscape:connector-curvature="0"
         id="path5022"
         d="m -1240.3402,151.29317 c 0,0 -0.3449,0.89117 -0.5539,1.32011 -0.2593,0.53177 -0.8663,1.54898 -0.8663,1.54898 l 0.5978,-0.24823 c -0.339,0.63464 -0.8342,1.46463 -0.8342,1.46463 l 0.727,-0.30186 c -0.4081,0.77806 -1.0737,1.89344 -1.0737,1.89344 l 0.7587,-0.31496 c -0.3863,0.60902 -0.8833,1.29566 -0.8833,1.29566 l 1.6938,-0.25606 v 0.73661 h 0.9646 v -0.72718 l 1.6295,0.23058 c 0,0 -0.5079,-0.67224 -0.9031,-1.27454 l 0.7463,0.30989 c 0,0 -0.6657,-1.11538 -1.0736,-1.89344 l 0.727,0.30186 c 0,0 -0.4954,-0.82999 -0.8344,-1.46463 l 0.598,0.24823 c 0,0 -0.6071,-1.01721 -0.8664,-1.54898 -0.209,-0.42894 -0.5538,-1.32011 -0.5538,-1.32011 z"
         style="fill:#d98bae;fill-opacity:1;stroke:none;stroke-width:0.02250819;stroke-miterlimit:4;stroke-dasharray:none;stroke-opacity:1" />
      <path
         style="fill:#d98bae;fill-opacity:1;stroke:none;stroke-width:0.02250819;stroke-miterlimit:4;stroke-dasharray:none;stroke-opacity:1"
         d="m -1182.4248,141.73927 c 0,0 -0.3449,0.89117 -0.5539,1.32011 -0.2593,0.53177 -0.8663,1.54898 -0.8663,1.54898 l 0.5978,-0.24823 c -0.339,0.63464 -0.8342,1.46463 -0.8342,1.46463 l 0.727,-0.30186 c -0.4081,0.77806 -1.0737,1.89344 -1.0737,1.89344 l 0.7587,-0.31496 c -0.3863,0.60902 -0.8833,1.29566 -0.8833,1.29566 l 1.6938,-0.25606 v 0.73661 h 0.9646 v -0.72718 l 1.6295,0.23058 c 0,0 -0.5079,-0.67224 -0.9031,-1.27454 l 0.7463,0.30989 c 0,0 -0.6657,-1.11538 -1.0736,-1.89344 l 0.727,0.30186 c 0,0 -0.4954,-0.82999 -0.8344,-1.46463 l 0.598,0.24823 c 0,0 -0.6071,-1.01721 -0.8664,-1.54898 -0.209,-0.42894 -0.5538,-1.32011 -0.5538,-1.32011 z"
         id="path5024"
         inkscape:connector-curvature="0" />
      <path
         inkscape:connector-curvature="0"
         id="path5026"
         d="m -1157.1072,147.02288 c 0,0 -0.5195,0.80201 -0.8117,1.17927 -0.3623,0.46765 -1.1642,1.33955 -1.1642,1.33955 l 0.6359,-0.12099 c -0.4614,0.55209 -1.1156,1.26354 -1.1156,1.26354 l 0.7733,-0.14713 c -0.5583,0.67839 -1.4375,1.63444 -1.4375,1.63444 l 0.807,-0.15348 c -0.5025,0.51736 -1.1292,1.0881 -1.1292,1.0881 l 1.7104,0.0951 -0.1503,0.7211 0.9443,0.19688 0.1484,-0.71187 1.5481,0.55831 c 0,0 -0.36,-0.76175 -0.6239,-1.43204 l 0.6673,0.45569 c 0,0 -0.424,-1.22777 -0.6645,-2.07271 l 0.6501,0.44389 c 0,0 -0.3156,-0.91363 -0.5179,-1.6041 l 0.5347,0.36506 c 0,0 -0.3867,-1.11971 -0.532,-1.69321 -0.117,-0.46257 -0.2727,-1.40535 -0.2727,-1.40535 z"
         style="fill:#d98bae;fill-opacity:1;stroke:none;stroke-width:0.02250819;stroke-miterlimit:4;stroke-dasharray:none;stroke-opacity:1" />
      <path
         inkscape:connector-curvature="0"
         id="path5028"
         d="m -1133.9154,153.36549 c 0,0 -0.3449,0.89117 -0.5539,1.32011 -0.2593,0.53177 -0.8663,1.54898 -0.8663,1.54898 l 0.5978,-0.24823 c -0.339,0.63464 -0.8342,1.46463 -0.8342,1.46463 l 0.727,-0.30186 c -0.4081,0.77806 -1.0737,1.89344 -1.0737,1.89344 l 0.7587,-0.31496 c -0.3863,0.60902 -0.8833,1.29566 -0.8833,1.29566 l 1.6938,-0.25606 v 0.73661 h 0.9646 v -0.72718 l 1.6295,0.23058 c 0,0 -0.5079,-0.67224 -0.9031,-1.27454 l 0.7463,0.30989 c 0,0 -0.6657,-1.11538 -1.0736,-1.89344 l 0.727,0.30186 c 0,0 -0.4954,-0.82999 -0.8344,-1.46463 l 0.598,0.24823 c 0,0 -0.6071,-1.01721 -0.8664,-1.54898 -0.209,-0.42894 -0.5538,-1.32011 -0.5538,-1.32011 z"
         style="fill:#d98bae;fill-opacity:1;stroke:none;stroke-width:0.02250819;stroke-miterlimit:4;stroke-dasharray:none;stroke-opacity:1" />
      <path
         style="fill:#d98bae;fill-opacity:1;stroke:none;stroke-width:0.02424426;stroke-miterlimit:4;stroke-dasharray:none;stroke-opacity:1"
         d="m -1137.1058,152.34244 c 0,0 -0.3715,0.9599 -0.5966,1.42193 -0.2793,0.57278 -0.9331,1.66845 -0.9331,1.66845 l 0.6439,-0.26738 c -0.3652,0.68359 -0.8985,1.5776 -0.8985,1.5776 l 0.783,-0.32514 c -0.4396,0.83807 -1.1565,2.03948 -1.1565,2.03948 l 0.8172,-0.33925 c -0.4161,0.65599 -0.9514,1.39559 -0.9514,1.39559 l 1.8244,-0.27581 v 0.79343 h 1.039 v -0.78327 l 1.7552,0.24837 c 0,0 -0.547,-0.72409 -0.9727,-1.37285 l 0.8038,0.33379 c 0,0 -0.717,-1.20141 -1.1564,-2.03948 l 0.7831,0.32514 c 0,0 -0.5336,-0.89401 -0.8988,-1.5776 l 0.6442,0.26738 c 0,0 -0.654,-1.09567 -0.9333,-1.66845 -0.2251,-0.46203 -0.5965,-1.42193 -0.5965,-1.42193 z"
         id="path5030"
         inkscape:connector-curvature="0" />
      <path
         inkscape:connector-curvature="0"
         id="path5032"
         d="m -1087.8744,144.12146 c 0,0 -0.3715,0.9599 -0.5966,1.42193 -0.2793,0.57278 -0.9331,1.66845 -0.9331,1.66845 l 0.6439,-0.26738 c -0.3652,0.68359 -0.8985,1.5776 -0.8985,1.5776 l 0.783,-0.32514 c -0.4396,0.83807 -1.1565,2.03948 -1.1565,2.03948 l 0.8172,-0.33925 c -0.4161,0.65599 -0.9514,1.39559 -0.9514,1.39559 l 1.8244,-0.27581 v 0.79343 h 1.039 v -0.78327 l 1.7552,0.24837 c 0,0 -0.547,-0.72409 -0.9727,-1.37285 l 0.8038,0.33379 c 0,0 -0.717,-1.20141 -1.1564,-2.03948 l 0.7831,0.32514 c 0,0 -0.5336,-0.89401 -0.8988,-1.5776 l 0.6442,0.26738 c 0,0 -0.654,-1.09567 -0.9333,-1.66845 -0.2251,-0.46203 -0.5965,-1.42193 -0.5965,-1.42193 z"
         style="fill:#d98bae;fill-opacity:1;stroke:none;stroke-width:0.02424426;stroke-miterlimit:4;stroke-dasharray:none;stroke-opacity:1" />
      <path
         sodipodi:nodetypes="cccccscscc"
         inkscape:connector-curvature="0"
         id="path4710"
         d="m -1400.4018,155.25896 c -5.3964,0.15706 -13.6308,-1.08677 -20.0324,-2.25413 v 36.64996 h 338.6667 v -40.14173 c -17.5926,3.25642 -35.2144,11.22789 -51.0271,9.90364 -18.3513,-1.53685 -34.8794,-11.62537 -53.2947,-11.71727 -21.7712,-0.10862 -51.9338,12.12066 -73.7053,12.09547 -22.0486,-0.0255 -39.2036,-9.64105 -61.2321,-10.58334 -30.3256,-2.8006 -55.8416,4.88708 -79.3751,6.0474 z"
         style="fill:#ce6293;fill-opacity:1;stroke:none;stroke-width:0.26458332px;stroke-linecap:butt;stroke-linejoin:miter;stroke-opacity:1" />
      <path
         style="fill:#ce6293;fill-opacity:1;stroke:none;stroke-width:0.06086412;stroke-miterlimit:4;stroke-dasharray:none;stroke-opacity:1"
         d="m -1371.1918,136.04592 c 0,0 -0.9323,2.40981 -1.4977,3.5697 -0.701,1.43795 -2.3425,4.18857 -2.3425,4.18857 l 1.6166,-0.67123 c -0.9167,1.71609 -2.2558,3.96051 -2.2558,3.96051 l 1.9659,-0.81626 c -1.1036,2.10393 -2.9034,5.12002 -2.9034,5.12002 l 2.0512,-0.85168 c -1.0443,1.64685 -2.3882,3.5036 -2.3882,3.5036 l 4.5801,-0.69244 v 1.99187 h 2.6084 v -1.96637 l 4.4063,0.6235 c 0,0 -1.3732,-1.81777 -2.4422,-3.4465 l 2.0183,0.83802 c 0,0 -1.7998,-3.01609 -2.9035,-5.12002 l 1.9659,0.81626 c 0,0 -1.3391,-2.24442 -2.2558,-3.96051 l 1.6167,0.67123 c 0,0 -1.6416,-2.75062 -2.3426,-4.18857 -0.5654,-1.15989 -1.4977,-3.5697 -1.4977,-3.5697 z"
         id="path4739"
         inkscape:connector-curvature="0" />
      <path
         inkscape:connector-curvature="0"
         id="path4741"
         d="m -1409.2798,137.68398 c 0,0 -1.3186,2.22206 -2.0684,3.27225 -0.9295,1.30195 -3.004,3.74262 -3.004,3.74262 l 1.7054,-0.39414 c -1.1883,1.54051 -2.8807,3.53207 -2.8807,3.53207 l 2.074,-0.47929 c -1.4369,1.89202 -3.7115,4.56827 -3.7115,4.56827 l 2.1639,-0.5001 c -1.3027,1.45109 -2.9356,3.05954 -2.9356,3.05954 l 4.6315,0.0759 -0.33,1.96435 2.5724,0.43212 0.3257,-1.93919 4.2422,1.34486 c 0,0 -1.0531,-2.02015 -1.8375,-3.80347 l 1.8515,1.16081 c 0,0 -1.2752,-3.27258 -2.0151,-5.53029 l 1.8035,1.13067 c 0,0 -0.9488,-2.43525 -1.5685,-4.2795 l 1.4832,0.92979 c 0,0 -1.1633,-2.98457 -1.6164,-4.51878 -0.3654,-1.23753 -0.8856,-3.76849 -0.8856,-3.76849 z"
         style="fill:#ce6293;fill-opacity:1;stroke:none;stroke-width:0.06086412;stroke-miterlimit:4;stroke-dasharray:none;stroke-opacity:1" />
      <path
         inkscape:connector-curvature="0"
         id="path4743"
         d="m -1333.7722,132.45515 c 0,0 -0.9323,2.40981 -1.4977,3.5697 -0.701,1.43795 -2.3425,4.18857 -2.3425,4.18857 l 1.6166,-0.67123 c -0.9167,1.71609 -2.2558,3.96051 -2.2558,3.96051 l 1.9659,-0.81626 c -1.1036,2.10393 -2.9034,5.12002 -2.9034,5.12002 l 2.0512,-0.85168 c -1.0443,1.64685 -2.3882,3.5036 -2.3882,3.5036 l 4.5801,-0.69244 v 1.99187 h 2.6084 v -1.96637 l 4.4063,0.6235 c 0,0 -1.3732,-1.81777 -2.4422,-3.4465 l 2.0183,0.83802 c 0,0 -1.7998,-3.01609 -2.9035,-5.12002 l 1.9659,0.81626 c 0,0 -1.3391,-2.24442 -2.2558,-3.96051 l 1.6167,0.67123 c 0,0 -1.6416,-2.75062 -2.3426,-4.18857 -0.5654,-1.15989 -1.4977,-3.5697 -1.4977,-3.5697 z"
         style="fill:#ce6293;fill-opacity:1;stroke:none;stroke-width:0.06086412;stroke-miterlimit:4;stroke-dasharray:none;stroke-opacity:1" />
      <path
         style="fill:#ce6293;fill-opacity:1;stroke:none;stroke-width:0.06086412;stroke-miterlimit:4;stroke-dasharray:none;stroke-opacity:1"
         d="m -1281.9895,140.39265 c 0,0 -0.9323,2.40981 -1.4977,3.5697 -0.701,1.43795 -2.3425,4.18857 -2.3425,4.18857 l 1.6166,-0.67123 c -0.9167,1.71609 -2.2558,3.96051 -2.2558,3.96051 l 1.9659,-0.81626 c -1.1036,2.10393 -2.9034,5.12002 -2.9034,5.12002 l 2.0512,-0.85168 c -1.0443,1.64685 -2.3882,3.5036 -2.3882,3.5036 l 4.5801,-0.69244 v 1.99187 h 2.6084 v -1.96637 l 4.4063,0.6235 c 0,0 -1.3732,-1.81777 -2.4422,-3.4465 l 2.0183,0.83802 c 0,0 -1.7998,-3.01609 -2.9035,-5.12002 l 1.9659,0.81626 c 0,0 -1.3391,-2.24442 -2.2558,-3.96051 l 1.6167,0.67123 c 0,0 -1.6416,-2.75062 -2.3426,-4.18857 -0.5654,-1.15989 -1.4977,-3.5697 -1.4977,-3.5697 z"
         id="path4745"
         inkscape:connector-curvature="0" />
      <path
         inkscape:connector-curvature="0"
         id="path4747"
         d="m -1270.4612,144.55039 c 0,0 -0.9323,2.40981 -1.4977,3.5697 -0.701,1.43795 -2.3425,4.18857 -2.3425,4.18857 l 1.6166,-0.67123 c -0.9167,1.71609 -2.2558,3.96051 -2.2558,3.96051 l 1.9659,-0.81626 c -1.1036,2.10393 -2.9034,5.12002 -2.9034,5.12002 l 2.0512,-0.85168 c -1.0443,1.64685 -2.3882,3.5036 -2.3882,3.5036 l 4.5801,-0.69244 v 1.99187 h 2.6084 v -1.96637 l 4.4063,0.6235 c 0,0 -1.3732,-1.81777 -2.4422,-3.4465 l 2.0183,0.83802 c 0,0 -1.7998,-3.01609 -2.9035,-5.12002 l 1.9659,0.81626 c 0,0 -1.3391,-2.24442 -2.2558,-3.96051 l 1.6167,0.67123 c 0,0 -1.6416,-2.75062 -2.3426,-4.18857 -0.5654,-1.15989 -1.4977,-3.5697 -1.4977,-3.5697 z"
         style="fill:#ce6293;fill-opacity:1;stroke:none;stroke-width:0.06086412;stroke-miterlimit:4;stroke-dasharray:none;stroke-opacity:1" />
      <path
         style="fill:#ce6293;fill-opacity:1;stroke:none;stroke-width:0.06086412;stroke-miterlimit:4;stroke-dasharray:none;stroke-opacity:1"
         d="m -1214.8987,135.47896 c 0,0 -0.9323,2.40981 -1.4977,3.5697 -0.701,1.43795 -2.3425,4.18857 -2.3425,4.18857 l 1.6166,-0.67123 c -0.9167,1.71609 -2.2558,3.96051 -2.2558,3.96051 l 1.9659,-0.81626 c -1.1036,2.10393 -2.9034,5.12002 -2.9034,5.12002 l 2.0512,-0.85168 c -1.0443,1.64685 -2.3882,3.5036 -2.3882,3.5036 l 4.5801,-0.69244 v 1.99187 h 2.6084 v -1.96637 l 4.4063,0.6235 c 0,0 -1.3732,-1.81777 -2.4422,-3.4465 l 2.0183,0.83802 c 0,0 -1.7998,-3.01609 -2.9035,-5.12002 l 1.9659,0.81626 c 0,0 -1.3391,-2.24442 -2.2558,-3.96051 l 1.6167,0.67123 c 0,0 -1.6416,-2.75062 -2.3426,-4.18857 -0.5654,-1.15989 -1.4977,-3.5697 -1.4977,-3.5697 z"
         id="path4749"
         inkscape:connector-curvature="0" />
      <path
         inkscape:connector-curvature="0"
         id="path4751"
         d="m -1193.921,132.26616 c 0,0 -0.9323,2.40981 -1.4977,3.5697 -0.701,1.43795 -2.3425,4.18857 -2.3425,4.18857 l 1.6166,-0.67123 c -0.9167,1.71609 -2.2558,3.96051 -2.2558,3.96051 l 1.9659,-0.81626 c -1.1036,2.10393 -2.9034,5.12002 -2.9034,5.12002 l 2.0512,-0.85168 c -1.0443,1.64685 -2.3882,3.5036 -2.3882,3.5036 l 4.5801,-0.69244 v 1.99187 h 2.6084 v -1.96637 l 4.4063,0.6235 c 0,0 -1.3732,-1.81777 -2.4422,-3.4465 l 2.0183,0.83802 c 0,0 -1.7998,-3.01609 -2.9035,-5.12002 l 1.9659,0.81626 c 0,0 -1.3391,-2.24442 -2.2558,-3.96051 l 1.6167,0.67123 c 0,0 -1.6416,-2.75062 -2.3426,-4.18857 -0.5654,-1.15989 -1.4977,-3.5697 -1.4977,-3.5697 z"
         style="fill:#ce6293;fill-opacity:1;stroke:none;stroke-width:0.06086412;stroke-miterlimit:4;stroke-dasharray:none;stroke-opacity:1" />
      <path
         style="fill:#ce6293;fill-opacity:1;stroke:none;stroke-width:0.0668164;stroke-miterlimit:4;stroke-dasharray:none;stroke-opacity:1"
         d="m -1167.2725,133.4585 c 0,0 -1.302,2.52012 -2.056,3.71933 -0.9347,1.48671 -3.0509,4.29511 -3.0509,4.29511 l 1.8437,-0.54182 c -1.2031,1.7648 -2.9296,4.0564 -2.9296,4.0564 l 2.242,-0.65888 c -1.4528,2.16607 -3.7731,5.24552 -3.7731,5.24552 l 2.3393,-0.68747 c -1.3342,1.67418 -3.0201,3.54209 -3.0201,3.54209 l 5.0806,-0.21522 -0.2351,2.17399 2.8469,0.30784 0.2321,-2.14616 4.7356,1.20052 c 0,0 -1.2843,-2.14603 -2.2587,-4.04984 l 2.1039,1.15284 c 0,0 -1.6084,-3.50427 -2.5648,-5.93084 l 2.0494,1.12291 c 0,0 -1.1967,-2.60768 -1.9946,-4.58885 l 1.6853,0.9234 c 0,0 -1.4672,-3.19587 -2.0625,-4.84802 -0.4802,-1.33267 -1.2134,-4.07285 -1.2134,-4.07285 z"
         id="path4753"
         inkscape:connector-curvature="0" />
      <path
         style="fill:#ce6293;fill-opacity:1;stroke:none;stroke-width:0.04835007;stroke-miterlimit:4;stroke-dasharray:none;stroke-opacity:1"
         d="m -1146.5341,143.79443 c 0,0 -0.7407,1.91434 -1.1898,2.83575 -0.5569,1.1423 -1.8609,3.32737 -1.8609,3.32737 l 1.2842,-0.53322 c -0.7282,1.36325 -1.7919,3.1462 -1.7919,3.1462 l 1.5617,-0.64843 c -0.8767,1.67135 -2.3065,4.06731 -2.3065,4.06731 l 1.6295,-0.67657 c -0.8296,1.30825 -1.8972,2.78324 -1.8972,2.78324 l 3.6384,-0.55007 v 1.58233 h 2.0721 v -1.56207 l 3.5003,0.4953 c 0,0 -1.0908,-1.44402 -1.94,-2.73787 l 1.6033,0.66571 c 0,0 -1.4298,-2.39596 -2.3065,-4.06731 l 1.5617,0.64843 c 0,0 -1.0638,-1.78295 -1.792,-3.1462 l 1.2843,0.53322 c 0,0 -1.3041,-2.18507 -1.861,-3.32737 -0.4491,-0.92141 -1.1897,-2.83575 -1.1897,-2.83575 z"
         id="path4755"
         inkscape:connector-curvature="0" />
      <path
         inkscape:connector-curvature="0"
         id="path4757"
         d="m -1114.5951,145.30633 c 0,0 -0.7407,1.91434 -1.1898,2.83575 -0.5569,1.1423 -1.8609,3.32737 -1.8609,3.32737 l 1.2842,-0.53322 c -0.7282,1.36325 -1.7919,3.1462 -1.7919,3.1462 l 1.5617,-0.64843 c -0.8767,1.67135 -2.3065,4.06731 -2.3065,4.06731 l 1.6295,-0.67657 c -0.8296,1.30825 -1.8972,2.78324 -1.8972,2.78324 l 3.6384,-0.55007 v 1.58233 h 2.0721 v -1.56207 l 3.5003,0.4953 c 0,0 -1.0908,-1.44402 -1.94,-2.73787 l 1.6033,0.66571 c 0,0 -1.4298,-2.39596 -2.3065,-4.06731 l 1.5617,0.64843 c 0,0 -1.0638,-1.78295 -1.792,-3.1462 l 1.2843,0.53322 c 0,0 -1.3041,-2.18507 -1.861,-3.32737 -0.4491,-0.92141 -1.1897,-2.83575 -1.1897,-2.83575 z"
         style="fill:#ce6293;fill-opacity:1;stroke:none;stroke-width:0.04835007;stroke-miterlimit:4;stroke-dasharray:none;stroke-opacity:1" />
      <path
         sodipodi:nodetypes="csssscccc"
         id="path4705"
         d="m -1081.7675,158.12433 c -21.2613,4.72323 -61.213,12.89552 -85.045,13.32529 -17.5313,0.31615 -34.627,-6.65979 -52.1606,-6.80372 -21.1757,-0.17383 -41.9485,7.5162 -63.1223,7.18147 -29.6634,-0.46894 -58.4014,-12.87289 -88.0685,-12.85089 -14.0327,0.0104 -37.6036,4.33414 -50.2703,6.87813 v 47.23465 h 338.6667 z"
         style="fill:#b0376e;fill-opacity:1;stroke:none;stroke-width:0.26458332px;stroke-linecap:butt;stroke-linejoin:miter;stroke-opacity:1"
         inkscape:connector-curvature="0" />
      <path
         inkscape:connector-curvature="0"
         id="path4715"
         d="m -1393.5813,123.86223 c 0,0 -2.0812,5.37946 -3.3434,7.96871 -1.5649,3.20995 -5.2293,9.35021 -5.2293,9.35021 l 3.6088,-1.4984 c -2.0464,3.83086 -5.0356,8.84111 -5.0356,8.84111 l 4.3885,-1.82215 c -2.4636,4.69665 -6.4814,11.4295 -6.4814,11.4295 l 4.579,-1.90122 c -2.3313,3.67629 -5.3312,7.82116 -5.3312,7.82116 l 10.2243,-1.54576 v 4.44649 h 5.8228 v -4.38957 l 9.8361,1.39185 c 0,0 -3.0653,-4.05782 -5.4518,-7.69366 l 4.5055,1.87071 c 0,0 -4.0177,-6.73285 -6.4814,-11.4295 l 4.3885,1.82215 c 0,0 -2.9893,-5.01025 -5.0358,-8.84111 l 3.609,1.4984 c 0,0 -3.6644,-6.14026 -5.2293,-9.35021 -1.2622,-2.58925 -3.3433,-7.96871 -3.3433,-7.96871 z"
         style="fill:#b0376e;fill-opacity:1;stroke:none;stroke-width:0.13586797;stroke-miterlimit:4;stroke-dasharray:none;stroke-opacity:1" />
      <path
         style="fill:#b0376e;fill-opacity:1;stroke:none;stroke-width:0.10547671;stroke-miterlimit:4;stroke-dasharray:none;stroke-opacity:1"
         d="m -1320.2597,137.87191 c 0,0 -1.6157,4.17617 -2.5956,6.18625 -1.2148,2.49194 -4.0595,7.25874 -4.0595,7.25874 l 2.8015,-1.16324 c -1.5886,2.97397 -3.9092,6.86351 -3.9092,6.86351 l 3.4069,-1.41456 c -1.9126,3.64609 -5.0317,8.87292 -5.0317,8.87292 l 3.5548,-1.47595 c -1.8098,2.85397 -4.1387,6.0717 -4.1387,6.0717 l 7.9373,-1.2 v 3.45189 h 4.5203 v -3.4077 l 7.636,1.08052 c 0,0 -2.3797,-3.15016 -4.2323,-5.97273 l 3.4977,1.45227 c 0,0 -3.1191,-5.22683 -5.0317,-8.87292 l 3.4069,1.41456 c 0,0 -2.3206,-3.88954 -3.9094,-6.86351 l 2.8018,1.16324 c 0,0 -2.8448,-4.7668 -4.0596,-7.25874 -0.9799,-2.01008 -2.5955,-6.18625 -2.5955,-6.18625 z"
         id="path4727"
         inkscape:connector-curvature="0" />
      <path
         inkscape:connector-curvature="0"
         id="path4729"
         d="m -1299.0495,144.67547 c 0,0 -1.4696,3.79867 -2.3609,5.62705 -1.105,2.26668 -3.6926,6.60258 -3.6926,6.60258 l 2.5483,-1.05808 c -1.4451,2.70513 -3.5559,6.24309 -3.5559,6.24309 l 3.099,-1.2867 c -1.7397,3.3165 -4.5768,8.07086 -4.5768,8.07086 l 3.2334,-1.34254 c -1.6462,2.59599 -3.7646,5.52286 -3.7646,5.52286 l 7.2198,-1.09153 v 3.13986 h 4.1117 v -3.09966 l 6.9457,0.98284 c 0,0 -2.1645,-2.8654 -3.8497,-5.43282 l 3.1815,1.32099 c 0,0 -2.8371,-4.75436 -4.5768,-8.07086 l 3.0989,1.2867 c 0,0 -2.1108,-3.53796 -3.556,-6.24309 l 2.5485,1.05808 c 0,0 -2.5876,-4.3359 -3.6926,-6.60258 -0.8913,-1.82838 -2.3609,-5.62705 -2.3609,-5.62705 z"
         style="fill:#b0376e;fill-opacity:1;stroke:none;stroke-width:0.09594219;stroke-miterlimit:4;stroke-dasharray:none;stroke-opacity:1" />
      <path
         style="fill:#b0376e;fill-opacity:1;stroke:none;stroke-width:0.11918257;stroke-miterlimit:4;stroke-dasharray:none;stroke-opacity:1"
         d="m -1228.0608,134.28113 c 0,0 -1.8256,4.71883 -2.9328,6.9901 -1.3727,2.81575 -4.5871,8.20195 -4.5871,8.20195 l 3.1656,-1.31439 c -1.7951,3.36041 -4.4172,7.75537 -4.4172,7.75537 l 3.8496,-1.59838 c -2.1611,4.11988 -5.6855,10.02589 -5.6855,10.02589 l 4.0167,-1.66774 c -2.045,3.22482 -4.6765,6.86068 -4.6765,6.86068 l 8.9687,-1.35593 v 3.90043 h 5.1077 v -3.8505 l 8.6282,1.22092 c 0,0 -2.6889,-3.5595 -4.7823,-6.74883 l 3.9522,1.64097 c 0,0 -3.5243,-5.90601 -5.6854,-10.02589 l 3.8495,1.59838 c 0,0 -2.6222,-4.39496 -4.4174,-7.75537 l 3.1658,1.31439 c 0,0 -3.2143,-5.3862 -4.5871,-8.20195 -1.1072,-2.27127 -2.9327,-6.9901 -2.9327,-6.9901 z"
         id="path4731"
         inkscape:connector-curvature="0" />
      <path
         inkscape:connector-curvature="0"
         id="path4733"
         d="m -1202.2972,127.85769 c 0,0 -2.1724,5.61513 -3.4899,8.31781 -1.6334,3.35058 -5.4584,9.75984 -5.4584,9.75984 l 3.7669,-1.56405 c -2.136,3.99869 -5.2562,9.22844 -5.2562,9.22844 l 4.5808,-1.90198 c -2.5715,4.90241 -6.7653,11.93022 -6.7653,11.93022 l 4.7796,-1.98451 c -2.4335,3.83735 -5.5648,8.1638 -5.5648,8.1638 l 10.6722,-1.61348 v 4.64129 h 6.0779 v -4.58187 l 10.267,1.45282 c 0,0 -3.1996,-4.23559 -5.6906,-8.03071 l 4.7029,1.95266 c 0,0 -4.1937,-7.02781 -6.7654,-11.93022 l 4.5808,1.90198 c 0,0 -3.1203,-5.22975 -5.2564,-9.22844 l 3.7671,1.56405 c 0,0 -3.825,-6.40926 -5.4584,-9.75984 -1.3175,-2.70268 -3.4898,-8.31781 -3.4898,-8.31781 z"
         style="fill:#b0376e;fill-opacity:1;stroke:none;stroke-width:0.14182027;stroke-miterlimit:4;stroke-dasharray:none;stroke-opacity:1" />
      <path
         style="fill:#b0376e;fill-opacity:1;stroke:none;stroke-width:0.0881954;stroke-miterlimit:4;stroke-dasharray:none;stroke-opacity:1"
         d="m -1123.456,142.78559 c 0,0 -1.351,3.49194 -2.1703,5.17269 -1.0158,2.08366 -3.3945,6.06946 -3.3945,6.06946 l 2.3426,-0.97265 c -1.3284,2.48671 -3.2688,5.739 -3.2688,5.739 l 2.8487,-1.18281 c -1.5992,3.04872 -4.2072,7.41919 -4.2072,7.41919 l 2.9723,-1.23414 c -1.5133,2.38638 -3.4606,5.07692 -3.4606,5.07692 l 6.6369,-1.00339 v 2.88633 h 3.7797 v -2.84938 l 6.3849,0.90348 c 0,0 -1.9898,-2.63403 -3.539,-4.99415 l 2.9247,1.21433 c 0,0 -2.608,-4.37047 -4.2073,-7.41919 l 2.8487,1.18281 c 0,0 -1.9404,-3.25229 -3.2688,-5.739 l 2.3427,0.97265 c 0,0 -2.3787,-3.9858 -3.3945,-6.06946 -0.8193,-1.68075 -2.1702,-5.17269 -2.1702,-5.17269 z"
         id="path4735"
         inkscape:connector-curvature="0" />
      <path
         inkscape:connector-curvature="0"
         id="path4737"
         d="m -1102.9707,131.25732 c 0,0 -1.853,4.78961 -2.9768,7.09496 -1.3933,2.85798 -4.6559,8.32497 -4.6559,8.32497 l 3.2131,-1.3341 c -1.822,3.41081 -4.4835,7.8717 -4.4835,7.8717 l 3.9073,-1.62236 c -2.1934,4.18168 -5.7707,10.17628 -5.7707,10.17628 l 4.0769,-1.69275 c -2.0756,3.27319 -4.7466,6.96358 -4.7466,6.96358 l 9.1032,-1.37627 v 3.95894 h 5.1844 v -3.90826 l 8.7576,1.23923 c 0,0 -2.7292,-3.61288 -4.8541,-6.85006 l 4.0115,1.66559 c 0,0 -3.5772,-5.9946 -5.7707,-10.17628 l 3.9073,1.62236 c 0,0 -2.6615,-4.46089 -4.4836,-7.8717 l 3.2132,1.3341 c 0,0 -3.2626,-5.46699 -4.6559,-8.32497 -1.1238,-2.30535 -2.9767,-7.09496 -2.9767,-7.09496 z"
         style="fill:#b0376e;fill-opacity:1;stroke:none;stroke-width:0.12097029;stroke-miterlimit:4;stroke-dasharray:none;stroke-opacity:1" />
      <path
         inkscape:connector-curvature="0"
         id="path5057"
         d="m -1357.8103,142.40763 c 0,0 -1.1045,2.85491 -1.7744,4.22904 -0.8305,1.70354 -2.7751,4.96222 -2.7751,4.96222 l 1.9151,-0.79522 c -1.086,2.03307 -2.6724,4.69203 -2.6724,4.69203 l 2.329,-0.96702 c -1.3075,2.49254 -3.4397,6.0657 -3.4397,6.0657 l 2.4301,-1.00899 c -1.2372,1.95103 -2.8293,4.15073 -2.8293,4.15073 l 5.4261,-0.82034 v 2.35978 h 3.0902 v -2.32957 l 5.2201,0.73866 c 0,0 -1.6268,-2.15351 -2.8933,-4.08307 l 2.3911,0.9928 c 0,0 -2.1323,-3.57316 -3.4398,-6.0657 l 2.329,0.96702 c 0,0 -1.5864,-2.65896 -2.6725,-4.69203 l 1.9154,0.79522 c 0,0 -1.9448,-3.25868 -2.7753,-4.96222 -0.6698,-1.37413 -1.7743,-4.22904 -1.7743,-4.22904 z"
         style="fill:#b0376e;fill-opacity:1;stroke:none;stroke-width:0.07210591;stroke-miterlimit:4;stroke-dasharray:none;stroke-opacity:1" />
      <path
         style="fill:#b0376e;fill-opacity:1;stroke:none;stroke-width:0.05609385;stroke-miterlimit:4;stroke-dasharray:none;stroke-opacity:1"
         d="m -1264.1761,156.84018 c 0,0 -0.8593,2.22094 -1.3804,3.28993 -0.6461,1.32524 -2.1589,3.86029 -2.1589,3.86029 l 1.4899,-0.61863 c -0.8449,1.5816 -2.079,3.65011 -2.079,3.65011 l 1.8118,-0.75229 c -1.0171,1.93904 -2.6758,4.71874 -2.6758,4.71874 l 1.8904,-0.78493 c -0.9624,1.51777 -2.201,3.229 -2.201,3.229 l 4.2212,-0.63817 v 1.83576 h 2.4039 v -1.81226 l 4.061,0.57463 c 0,0 -1.2656,-1.67529 -2.2509,-3.17637 l 1.8602,0.77234 c 0,0 -1.6588,-2.7797 -2.676,-4.71874 l 1.8118,0.75229 c 0,0 -1.2341,-2.06851 -2.079,-3.65011 l 1.4901,0.61863 c 0,0 -1.513,-2.53505 -2.159,-3.86029 -0.5211,-1.06899 -1.3803,-3.28993 -1.3803,-3.28993 z"
         id="path5072"
         inkscape:connector-curvature="0" />
      <path
         inkscape:connector-curvature="0"
         id="path5074"
         d="m -1159.8264,147.85178 c 0,0 -1.2676,3.27635 -2.0363,4.85333 -0.9532,1.955 -3.1849,5.69473 -3.1849,5.69473 l 2.1979,-0.91261 c -1.2464,2.33319 -3.0669,5.38467 -3.0669,5.38467 l 2.6728,-1.10978 c -1.5005,2.86049 -3.9474,6.96112 -3.9474,6.96112 l 2.7887,-1.15793 c -1.4197,2.23903 -3.2469,4.76345 -3.2469,4.76345 l 6.2271,-0.94144 v 2.70813 h 3.5463 v -2.67346 l 5.9908,0.8477 c 0,0 -1.867,-2.4714 -3.3205,-4.68581 l 2.7442,1.13936 c 0,0 -2.4471,-4.10063 -3.9477,-6.96112 l 2.6728,1.10978 c 0,0 -1.8206,-3.05148 -3.067,-5.38467 l 2.1982,0.91261 c 0,0 -2.232,-3.73973 -3.1849,-5.69473 -0.7688,-1.57698 -2.0363,-4.85333 -2.0363,-4.85333 z"
         style="fill:#b0376e;fill-opacity:1;stroke:none;stroke-width:0.0827501;stroke-miterlimit:4;stroke-dasharray:none;stroke-opacity:1" />
      <path
         inkscape:connector-curvature="0"
         id="path5111"
         d="m -1306.2,139.12312 c 0,0 -0.658,1.70076 -1.057,2.51937 -0.4947,1.01486 -1.6533,2.95616 -1.6533,2.95616 l 1.141,-0.47373 c -0.647,1.21116 -1.5921,2.7952 -1.5921,2.7952 l 1.3875,-0.5761 c -0.7789,1.48489 -2.0492,3.61355 -2.0492,3.61355 l 1.4477,-0.60109 c -0.737,1.16229 -1.6855,2.47272 -1.6855,2.47272 l 3.2325,-0.4887 v 1.4058 h 1.8409 v -1.3878 l 3.1098,0.44005 c 0,0 -0.9692,-1.28293 -1.7236,-2.43243 l 1.4245,0.59145 c 0,0 -1.2703,-2.12866 -2.0492,-3.61355 l 1.3875,0.5761 c 0,0 -0.9452,-1.58404 -1.5922,-2.7952 l 1.1411,0.47373 c 0,0 -1.1586,-1.9413 -1.6533,-2.95616 -0.3991,-0.81861 -1.0571,-2.51937 -1.0571,-2.51937 z"
         style="fill:#ce6293;fill-opacity:1;stroke:none;stroke-width:0.04295589;stroke-miterlimit:4;stroke-dasharray:none;stroke-opacity:1" />
      <path
         style="fill:#ce6293;fill-opacity:1;stroke:none;stroke-width:0.04179509;stroke-miterlimit:4;stroke-dasharray:none;stroke-opacity:1"
         d="m -1247.9789,147.19622 c 0,0 -0.6402,1.6548 -1.0285,2.45129 -0.4814,0.98744 -1.6086,2.87627 -1.6086,2.87627 l 1.1101,-0.46093 c -0.6295,1.17843 -1.549,2.71967 -1.549,2.71967 l 1.35,-0.56052 c -0.7579,1.44475 -1.9938,3.51589 -1.9938,3.51589 l 1.4086,-0.58485 c -0.7172,1.13089 -1.64,2.40591 -1.64,2.40591 l 3.1451,-0.4755 v 1.36781 h 1.7912 v -1.3503 l 3.0258,0.42816 c 0,0 -0.943,-1.24826 -1.6771,-2.3667 l 1.386,0.57547 c 0,0 -1.2359,-2.07114 -1.9938,-3.51589 l 1.35,0.56052 c 0,0 -0.9196,-1.54124 -1.5491,-2.71967 l 1.1102,0.46093 c 0,0 -1.1273,-1.88883 -1.6087,-2.87627 -0.3882,-0.79649 -1.0284,-2.45129 -1.0284,-2.45129 z"
         id="path5113"
         inkscape:connector-curvature="0" />
      <g
         id="g5130">
        <rect
           style="fill:#c8b1fe;fill-opacity:1;stroke:none;stroke-width:0.36408851;stroke-miterlimit:4;stroke-dasharray:none;stroke-opacity:1"
           id="rect5121"
           width="39.52961"
           height="3.7709167"
           x="-1401.9265"
           y="70.562141"
           rx="1.8854584"
           ry="1.8854584" />
        <rect
           ry="1.8854584"
           rx="1.8854584"
           y="73.422836"
           x="-1405.9575"
           height="3.7709167"
           width="39.52961"
           id="rect5123"
           style="fill:#c8b1fe;fill-opacity:1;stroke:none;stroke-width:0.36408851;stroke-miterlimit:4;stroke-dasharray:none;stroke-opacity:1" />
        <rect
           style="fill:#c8b1fe;fill-opacity:1;stroke:none;stroke-width:0.25403938;stroke-miterlimit:4;stroke-dasharray:none;stroke-opacity:1"
           id="rect5125"
           width="19.244677"
           height="3.7709167"
           x="-1391.524"
           y="75.633385"
           rx="1.8854584"
           ry="1.8854584" />
      </g>
      <g
         transform="matrix(1.6565068,0,0,-1.6565068,1004.8051,213.66349)"
         id="g5138">
        <rect
           ry="1.8854584"
           rx="1.8854584"
           y="70.562141"
           x="-1401.9265"
           height="3.7709167"
           width="39.52961"
           id="rect5132"
           style="fill:#c8b1fe;fill-opacity:1;stroke:none;stroke-width:0.36408851;stroke-miterlimit:4;stroke-dasharray:none;stroke-opacity:1" />
        <rect
           style="fill:#c8b1fe;fill-opacity:1;stroke:none;stroke-width:0.36408851;stroke-miterlimit:4;stroke-dasharray:none;stroke-opacity:1"
           id="rect5134"
           width="39.52961"
           height="3.7709167"
           x="-1405.9575"
           y="73.422836"
           rx="1.8854584"
           ry="1.8854584" />
        <rect
           ry="1.8854584"
           rx="1.8854584"
           y="75.633385"
           x="-1391.524"
           height="3.7709167"
           width="19.244677"
           id="rect5136"
           style="fill:#c8b1fe;fill-opacity:1;stroke:none;stroke-width:0.25403938;stroke-miterlimit:4;stroke-dasharray:none;stroke-opacity:1" />
      </g>
      <g
         id="g5146"
         transform="matrix(-0.93106543,0,0,-0.93106543,-2463.028,139.22234)">
        <rect
           style="fill:#c8b1fe;fill-opacity:1;stroke:none;stroke-width:0.36408851;stroke-miterlimit:4;stroke-dasharray:none;stroke-opacity:1"
           id="rect5140"
           width="39.52961"
           height="3.7709167"
           x="-1401.9265"
           y="70.562141"
           rx="1.8854584"
           ry="1.8854584" />
        <rect
           ry="1.8854584"
           rx="1.8854584"
           y="73.422836"
           x="-1405.9575"
           height="3.7709167"
           width="39.52961"
           id="rect5142"
           style="fill:#c8b1fe;fill-opacity:1;stroke:none;stroke-width:0.36408851;stroke-miterlimit:4;stroke-dasharray:none;stroke-opacity:1" />
        <rect
           style="fill:#c8b1fe;fill-opacity:1;stroke:none;stroke-width:0.25403938;stroke-miterlimit:4;stroke-dasharray:none;stroke-opacity:1"
           id="rect5144"
           width="19.244677"
           height="3.7709167"
           x="-1391.524"
           y="75.633385"
           rx="1.8854584"
           ry="1.8854584" />
      </g>
      <g
         transform="matrix(-0.93106543,0,0,0.93106543,-2403.6942,22.311679)"
         id="g5154">
        <rect
           ry="1.8854584"
           rx="1.8854584"
           y="70.562141"
           x="-1401.9265"
           height="3.7709167"
           width="39.52961"
           id="rect5148"
           style="fill:#c8b1fe;fill-opacity:1;stroke:none;stroke-width:0.36408851;stroke-miterlimit:4;stroke-dasharray:none;stroke-opacity:1" />
        <rect
           style="fill:#c8b1fe;fill-opacity:1;stroke:none;stroke-width:0.36408851;stroke-miterlimit:4;stroke-dasharray:none;stroke-opacity:1"
           id="rect5150"
           width="39.52961"
           height="3.7709167"
           x="-1405.9575"
           y="73.422836"
           rx="1.8854584"
           ry="1.8854584" />
        <rect
           ry="1.8854584"
           rx="1.8854584"
           y="75.633385"
           x="-1391.524"
           height="3.7709167"
           width="19.244677"
           id="rect5152"
           style="fill:#c8b1fe;fill-opacity:1;stroke:none;stroke-width:0.25403938;stroke-miterlimit:4;stroke-dasharray:none;stroke-opacity:1" />
      </g>
      <circle
         r="0.94494051"
         cy="28.353424"
         cx="-1413.3474"
         id="path5156"
         style="fill:#ffffff;fill-opacity:1;stroke:none;stroke-width:0.2405303;stroke-miterlimit:4;stroke-dasharray:none;stroke-opacity:1" />
      <circle
         style="fill:#ffffff;fill-opacity:1;stroke:none;stroke-width:0.12147388;stroke-miterlimit:4;stroke-dasharray:none;stroke-opacity:1"
         id="circle5158"
         cx="-1382.9156"
         cy="43.46772"
         r="0.47721884" />
      <circle
         r="0.47721884"
         cy="32.128437"
         cx="-1337.1805"
         id="circle5160"
         style="fill:#ffffff;fill-opacity:1;stroke:none;stroke-width:0.12147388;stroke-miterlimit:4;stroke-dasharray:none;stroke-opacity:1" />
      <circle
         style="fill:#ffffff;fill-opacity:1;stroke:none;stroke-width:0.17249806;stroke-miterlimit:4;stroke-dasharray:none;stroke-opacity:1"
         id="circle5162"
         cx="-1288.599"
         cy="53.283638"
         r="0.67767096" />
      <circle
         r="0.47721884"
         cy="39.876945"
         cx="-1256.4825"
         id="circle5164"
         style="fill:#ffffff;fill-opacity:1;stroke:none;stroke-width:0.12147388;stroke-miterlimit:4;stroke-dasharray:none;stroke-opacity:1" />
      <circle
         style="fill:#ffffff;fill-opacity:1;stroke:none;stroke-width:0.13848194;stroke-miterlimit:4;stroke-dasharray:none;stroke-opacity:1"
         id="circle5166"
         cx="-1225.7996"
         cy="31.494654"
         r="0.54403621" />
      <circle
         r="0.67767096"
         cy="48.180958"
         cx="-1181.0647"
         id="circle5168"
         style="fill:#ffffff;fill-opacity:1;stroke:none;stroke-width:0.17249806;stroke-miterlimit:4;stroke-dasharray:none;stroke-opacity:1" />
      <circle
         style="fill:#ffffff;fill-opacity:1;stroke:none;stroke-width:0.15549;stroke-miterlimit:4;stroke-dasharray:none;stroke-opacity:1"
         id="circle5170"
         cx="-1135.0186"
         cy="33.506706"
         r="0.61085361" />
      <circle
         r="0.94494051"
         cy="50.9375"
         cx="-1097.6428"
         id="circle5172"
         style="fill:#ffffff;fill-opacity:1;stroke:none;stroke-width:0.2405303;stroke-miterlimit:4;stroke-dasharray:none;stroke-opacity:1" />
    </g>
  </g>
</svg>
